<svg width="316" height="374" viewBox="0 0 316 374" fill="none" xmlns="http://www.w3.org/2000/svg">
<path d="M142.914 367.086C151.246 375.418 164.754 375.418 173.086 367.086L308.86 231.312C317.191 222.981 317.191 209.472 308.86 201.14C300.528 192.809 287.019 192.809 278.688 201.14L158 321.828L37.3123 201.14C28.9806 192.809 15.4721 192.809 7.1404 201.14C-1.19135 209.472 -1.19136 222.981 7.1404 231.312L142.914 367.086ZM179.335 22C179.335 10.2171 169.783 0.665223 158 0.665222C146.217 0.665222 136.665 10.2171 136.665 22L179.335 22ZM179.335 352L179.335 22L136.665 22L136.665 352L179.335 352Z" fill="black"/>
</svg>
