<svg width="28" height="40" viewBox="0 0 46 54" fill="none" xmlns="http://www.w3.org/2000/svg">
<path d="M20.8787 52.8914C22.0503 54.0629 23.9497 54.0629 25.1213 52.8914L44.2132 33.7995C45.3848 32.6279 45.3848 30.7284 44.2132 29.5568C43.0416 28.3853 41.1421 28.3853 39.9706 29.5568L23 46.5274L6.02944 29.5568C4.85787 28.3853 2.95837 28.3853 1.7868 29.5568C0.615224 30.7284 0.615224 32.6279 1.7868 33.7995L20.8787 52.8914ZM26 3.5401C26 1.88325 24.6569 0.540104 23 0.540104C21.3431 0.540104 20 1.88325 20 3.5401L26 3.5401ZM26 50.7701L26 3.5401L20 3.5401L20 50.77L26 50.7701Z" fill="white"/>
</svg>
