<svg width="20" height="30" viewBox="0 0 331 318" fill="#ffffff" xmlns="http://www.w3.org/2000/svg">
<path d="M324.442 123.811L283.121 90.134V36.275C283.121 30.21 278.186 25.275 272.121 25.275H246.121C240.056 25.275 235.121 30.21 235.121 36.275V51.012L179.908 6.013C175.914 2.759 170.65 0.966003 165.086 0.966003C159.544 0.966003 154.305 2.748 150.333 5.985L5.80006 123.81C-0.766936 129.161 -0.372936 133.822 0.446064 136.124C1.26306 138.421 3.89406 142.275 12.3301 142.275H32.1211V297.222C32.1211 308.28 41.0931 317.275 52.1211 317.275H114.621C125.556 317.275 134.121 308.466 134.121 297.222V233.681C134.121 228.235 139.126 223.276 144.621 223.276H186.621C191.859 223.276 196.121 227.944 196.121 233.681V297.222C196.121 308.092 205.509 317.275 216.621 317.275H278.121C289.149 317.275 298.121 308.279 298.121 297.222V142.275H317.912C326.348 142.275 328.978 138.421 329.796 136.124C330.615 133.822 331.009 129.161 324.442 123.811Z" fill="white"/>
</svg>
