<svg width="20" height="30" viewBox="0 0 490 490" fill="none" xmlns="http://www.w3.org/2000/svg">
<path d="M401.161 57.429C423.341 77.466 437.364 106.363 437.364 138.607C437.364 148.746 435.98 158.561 433.4 167.879C432.32 171.781 431.03 175.596 429.542 179.31L426.549 186.109L335.528 354.324V484.678L490 391.948V0L401.161 57.429Z" fill="white"/>
<path d="M155.697 3.659L0 82.979V490L155.697 392.942V3.659Z" fill="white"/>
<path d="M229.324 186.37L226.004 178.825C224.598 175.265 223.378 171.612 222.344 167.88C219.765 158.562 218.381 148.748 218.381 138.608C218.381 106.892 231.947 78.413 253.496 58.417L171.01 5.241V392.966L320.217 485.979V354.327L229.324 186.37Z" fill="white"/>
<path d="M327.873 104.485C309.604 104.485 294.741 119.348 294.741 137.617C294.741 155.886 309.604 170.749 327.873 170.749C346.142 170.749 361.005 155.886 361.005 137.617C361.004 119.348 346.142 104.485 327.873 104.485Z" fill="white"/>
<path d="M327.873 44.429C275.942 44.429 233.694 86.678 233.694 138.608C233.694 147.149 234.841 155.623 237.102 163.796C237.99 167.006 239.048 170.169 240.245 173.198L243.082 179.621L327.872 336.3L412.786 179.372L415.527 173.143C416.607 170.422 417.722 167.119 418.643 163.795C420.905 155.623 422.052 147.149 422.052 138.607C422.052 86.678 379.803 44.429 327.873 44.429ZM327.873 186.06C301.118 186.06 279.429 164.371 279.429 137.616C279.429 110.861 301.118 89.172 327.873 89.172C354.628 89.172 376.317 110.861 376.317 137.616C376.317 164.371 354.628 186.06 327.873 186.06Z" fill="white"/>
</svg>
