<svg width="28" height="40" viewBox="0 0 46 54" fill="none" xmlns="http://www.w3.org/2000/svg">
<path d="M20 50.77C20 52.4269 21.3431 53.77 23 53.7701C24.6569 53.7701 26 52.4269 26 50.7701L20 50.77ZM25.1213 1.41879C23.9497 0.247211 22.0503 0.247211 20.8787 1.41879L1.7868 20.5107C0.615224 21.6822 0.615224 23.5817 1.7868 24.7533C2.95837 25.9249 4.85787 25.9249 6.02944 24.7533L23 7.78275L39.9706 24.7533C41.1421 25.9249 43.0416 25.9249 44.2132 24.7533C45.3848 23.5817 45.3848 21.6822 44.2132 20.5107L25.1213 1.41879ZM26 50.7701L26 3.5401L20 3.5401L20 50.77L26 50.7701Z" fill="white"/>
</svg>
