<svg width="792" height="1130" viewBox="0 0 792 1130" fill="none" xmlns="http://www.w3.org/2000/svg">
<path d="M396 1130C396 1130 0.5 614.155 0.5 395.5C0.499999 343.562 10.7299 292.133 30.6056 244.149C50.4814 196.164 79.6137 152.565 116.339 115.839C153.065 79.1137 196.664 49.9814 244.649 30.1056C292.633 10.2299 344.062 0 396 0C447.938 0 499.367 10.2299 547.351 30.1056C595.336 49.9814 638.935 79.1137 675.661 115.839C712.386 152.565 741.519 196.164 761.394 244.149C781.27 292.133 791.5 343.562 791.5 395.5C791.5 614.155 396 1130 396 1130ZM396 508.5C425.969 508.5 454.711 496.595 475.903 475.403C497.095 454.211 509 425.469 509 395.5C509 365.531 497.095 336.789 475.903 315.597C454.711 294.405 425.969 282.5 396 282.5C366.031 282.5 337.289 294.405 316.097 315.597C294.905 336.789 283 365.531 283 395.5C283 425.469 294.905 454.211 316.097 475.403C337.289 496.595 366.031 508.5 396 508.5Z" fill="white"/>
</svg>
